# xmcd CD database file
#
# Track frame offsets:
#	150
#	18030
#	33632
#	49687
#	67145
#	82507
#	98975
#	117710
#	133337
#	147517
#	163090
#	178767
#	196480
#	210990
#
# Disc length: 3000 seconds
#
# Revision: 0
# Processed by: cddbd v1.5.1PL0 Copyright (c) Steve Scherf et al.
# Submitted via: NeoAudio 9.9.9
#
DISCID=cb0bb60e
DTITLE=Dave Sheriff - Love to line Dance 1
DYEAR=1900
DGENRE=Country
TTITLE0=four wheel cowboy blues 
TTITLE1=outlaw of the heart
TTITLE2=my new found friend
TTITLE3=oasis
TTITLE4=when you move that way
TTITLE5=cruisin
TTITLE6=hearts on fire
TTITLE7=be my valentine
TTITLE8=mighty matador
TTITLE9=country cowboy
TTITLE10=cowgirl swing
TTITLE11=walkin
TTITLE12=get in line
TTITLE13=down town boogie
EXTD=
EXTT0=
EXTT1=
EXTT2=
EXTT3=
EXTT4=
EXTT5=
EXTT6=
EXTT7=
EXTT8=
EXTT9=
EXTT10=
EXTT11=
EXTT12=
EXTT13=
PLAYORDER=
